<svg xmlns="http://www.w3.org/2000/svg" width="55.101" height="56.629" viewBox="0 0 55.101 56.629"><defs><style>.a{fill:#cbd0d3;}</style></defs><g transform="translate(-6.907)"><g transform="translate(6.907)"><g transform="translate(0)"><path class="a" d="M50.134,8.669A1.367,1.367,0,0,0,51.5,7.3V2.989A2.992,2.992,0,0,0,48.513,0H19.6a1.368,1.368,0,0,0-.967.4L7.307,11.723a1.367,1.367,0,0,0-.4.966v40.95A2.993,2.993,0,0,0,9.9,56.629H48.513A2.992,2.992,0,0,0,51.5,53.64V32.77a1.367,1.367,0,1,0-2.734,0V53.64a.255.255,0,0,1-.254.256H9.9a.256.256,0,0,1-.256-.256V14.057h8.335a2.991,2.991,0,0,0,2.988-2.988V2.734H48.513a.255.255,0,0,1,.254.256V7.3A1.367,1.367,0,0,0,50.134,8.669Zm-31.9,2.4a.255.255,0,0,1-.254.254h-6.4L18.23,4.667Z" transform="translate(-6.907)"/></g></g><g transform="translate(16.23 8.144)"><path class="a" d="M135.626,76.59l-1.608-1.608a4.631,4.631,0,0,0-6.541,0L114.711,87.748H92.568a1.367,1.367,0,0,0,0,2.734h19.41l-8.227,8.227H92.568a1.367,1.367,0,1,0,0,2.734h8.449l-.022.022a1.367,1.367,0,0,0-.35.6l-2.111,7.6H92.568a1.367,1.367,0,1,0,0,2.734h7s.3-.034.344-.045l8.627-2.394a1.367,1.367,0,0,0,.6-.35l26.483-26.482A4.63,4.63,0,0,0,135.626,76.59Zm-34.09,32.482,1.116-4.018,2.9,2.9Zm6.641-2.358-4.283-4.283,21.86-21.86,4.283,4.283ZM133.693,81.2l-1.722,1.722-4.283-4.283,1.722-1.722a1.893,1.893,0,0,1,2.674,0l1.608,1.608A1.893,1.893,0,0,1,133.693,81.2Z" transform="translate(-91.201 -73.63)"/></g></g></svg>