<svg xmlns="http://www.w3.org/2000/svg" width="181.023" height="41" viewBox="0 0 181.023 41">
  <g id="Group_3635" data-name="Group 3635" transform="translate(-1102 -79)">
    <g id="Path_28607" data-name="Path 28607" transform="translate(1102 79)" fill="#1dc143">
      <path d="M 172.0997467041016 40.5 L 8.92369556427002 40.5 C 4.278855323791504 40.5 0.5000141859054565 37.58411407470703 0.5000141859054565 34 L 0.5000141859054565 7 C 0.5000141859054565 3.415886402130127 4.278855323791504 0.5 8.92369556427002 0.5 L 172.0997467041016 0.5 C 176.7445831298828 0.5 180.5234527587891 3.415886402130127 180.5234527587891 7 L 180.5234527587891 34 C 180.5234527587891 37.58411407470703 176.7445831298828 40.5 172.0997467041016 40.5 Z" stroke="none"/>
      <path d="M 8.923690795898438 1 C 6.762832641601562 1 4.741073608398438 1.65240478515625 3.230880737304688 2.837047576904297 C 1.79229736328125 3.965549468994141 1 5.443977355957031 1 7 L 1 34 C 1 35.55602264404297 1.79229736328125 37.03445434570312 3.230880737304688 38.1629524230957 C 4.741073608398438 39.34759521484375 6.762832641601562 40 8.923690795898438 40 L 172.0997467041016 40 C 174.2606048583984 40 176.2823638916016 39.34759521484375 177.7925567626953 38.1629524230957 C 179.2311401367188 37.03445434570312 180.0234375 35.55602264404297 180.0234375 34 L 180.0234375 7 C 180.0234375 5.443977355957031 179.2311401367188 3.965549468994141 177.7925567626953 2.837047576904297 C 176.2823638916016 1.65240478515625 174.2606048583984 1 172.0997467041016 1 L 8.923690795898438 1 M 8.923690795898438 0 L 172.0997467041016 0 C 177.0281677246094 0 181.0234375 3.133998870849609 181.0234375 7 L 181.0234375 34 C 181.0234375 37.86600112915039 177.0281677246094 41 172.0997467041016 41 L 8.923690795898438 41 C 3.995269775390625 41 0 37.86600112915039 0 34 L 0 7 C 0 3.133998870849609 3.995269775390625 0 8.923690795898438 0 Z" stroke="none" fill="#1dc143"/>
    </g>
    <g id="Group_3634" data-name="Group 3634" transform="translate(6.09)">
      <text id="WhatsApp" transform="translate(1206 106)" fill="#fff" font-size="18" font-family="GeogrotesqueCyr-Regular, Geogrotesque Cyr"><tspan x="-38" y="0">WhatsApp</tspan></text>
      <path id="whatsapp-brands" d="M17.986,35.074a10.486,10.486,0,0,0-16.5,12.65L0,53.154,5.558,51.7a10.451,10.451,0,0,0,5.01,1.275h0a10.416,10.416,0,0,0,7.413-17.9ZM10.572,51.2a8.7,8.7,0,0,1-4.439-1.214L5.817,49.8l-3.3.864L3.4,47.45l-.208-.331a8.73,8.73,0,1,1,16.192-4.632A8.81,8.81,0,0,1,10.572,51.2Zm4.779-6.526c-.26-.132-1.549-.765-1.79-.85s-.416-.132-.59.132-.675.85-.831,1.029-.307.2-.567.066A7.13,7.13,0,0,1,8.008,41.94c-.269-.463.269-.43.77-1.431a.485.485,0,0,0-.024-.458c-.066-.132-.59-1.421-.807-1.945s-.43-.439-.59-.449-.326-.009-.5-.009a.97.97,0,0,0-.7.326,2.943,2.943,0,0,0-.916,2.186,5.131,5.131,0,0,0,1.067,2.71,11.7,11.7,0,0,0,4.476,3.957,5.125,5.125,0,0,0,3.145.656A2.683,2.683,0,0,0,15.7,46.237a2.191,2.191,0,0,0,.151-1.247C15.785,44.872,15.611,44.806,15.351,44.678Z" transform="translate(1127.91 57)" fill="#fff"/>
    </g>
  </g>
</svg>
